<svg width="24" height="24" viewBox="0 0 24 24" fill="none" xmlns="http://www.w3.org/2000/svg">
<path fill-rule="evenodd" clip-rule="evenodd" d="M23.9821 12.0815C23.9616 12.2639 23.9321 12.3881 23.8731 12.6365C22.0931 20.1316 15.7732 22.9267 13.1521 23.7794C12.7 23.9265 12.4739 24 12 24C11.5261 24 11.3 23.9265 10.8479 23.7794C8.22677 22.9267 1.90689 20.1316 0.126874 12.6365C0.0678842 12.3881 0.0383895 12.2639 0.0178901 12.0815C-0.00260935 11.8991 -0.00120993 11.7488 0.00158892 11.4481C0.0891532 2.0403 2.32006 0 12 0C21.6799 0 23.9108 2.04031 23.9984 11.4481C24.0012 11.7488 24.0026 11.8991 23.9821 12.0815ZM15.7075 8.32728C16.0981 8.71942 16.0981 9.35521 15.7075 9.74736L13.4144 12.0498L15.7075 14.3521C16.0981 14.7443 16.0981 15.3801 15.7075 15.7722C15.3169 16.1644 14.6837 16.1644 14.2931 15.7722L12 13.4698L9.70692 15.7722C9.31636 16.1644 8.68313 16.1644 8.29257 15.7722C7.90201 15.3801 7.90201 14.7443 8.29257 14.3521L10.5857 12.0498L8.29257 9.74736C7.90201 9.35521 7.90201 8.71942 8.29257 8.32728C8.68313 7.93514 9.31636 7.93514 9.70692 8.32728L12 10.6297L14.2931 8.32728C14.6837 7.93514 15.3169 7.93514 15.7075 8.32728Z" fill="red"/>
</svg>
