<svg width="130" height="36" viewBox="0 0 130 36" fill="none" xmlns="http://www.w3.org/2000/svg">
<path d="M112.079 0C106.205 0 100.986 2.83643 97.721 7.21869C96.2765 5.29179 94.4522 3.66687 92.3626 2.45536C90.9719 1.65009 89.4594 1.02457 87.8644 0.611144C85.6027 0.0287598 83.402 1.75794 83.402 4.10186C83.402 5.75195 84.5275 7.17196 86.1189 7.58898C87.0615 7.83703 87.9504 8.20731 88.7748 8.68904C91.9898 10.5512 94.1547 14.0383 94.1547 18.0252C94.1547 23.9712 89.3339 28.8101 83.402 28.8101C82.4235 28.8101 81.4737 28.6771 80.5741 28.4326C78.9827 27.9976 77.2945 28.6411 76.4666 30.0755L76.4522 30.1043C75.2945 32.1138 76.3124 34.7022 78.5418 35.3313C80.0866 35.7663 81.7174 36 83.402 36C89.2766 36 94.4952 33.1636 97.7604 28.7777C101.151 33.2966 106.617 36.1582 112.739 35.9389C122.043 35.6046 129.631 28.0156 129.986 18.6866C130.38 8.43379 122.208 0.00359497 112.079 0.00359497V0ZM112.957 28.7238C106.341 29.2522 100.836 23.7304 101.363 17.0941C101.778 11.8706 105.997 7.63931 111.205 7.22229C117.821 6.69383 123.327 12.2157 122.8 18.852C122.384 24.0755 118.165 28.3068 112.957 28.7238Z" fill="#2A9C8E"/>
<path d="M19.105 0.0504369C14.9867 0.000107311 11.1803 1.34463 8.1301 3.64541C3.77528 6.92402 0.96167 12.1439 0.96167 18.0253V32.4051C0.96167 34.3896 2.5674 36.0001 4.54589 36.0001C6.52437 36.0001 8.1301 34.3896 8.1301 32.4051C11.1265 34.6628 14.8505 36.0001 18.8827 36.0001C28.7788 36.0001 36.8038 27.951 36.8038 18.0253C36.8038 8.09238 29.0082 0.172666 19.105 0.0504369ZM18.8827 28.8102C12.9545 28.8102 8.1301 23.9714 8.1301 18.0253C8.1301 12.0792 12.9545 7.24037 18.8827 7.24037C24.811 7.24037 29.6354 12.0792 29.6354 18.0253C29.6354 23.9714 24.811 28.8102 18.8827 28.8102Z" fill="#2A9C8E"/>
<path d="M72.6459 0.0505371H43.9722C41.9926 0.0505371 40.3879 1.66006 40.3879 3.6455C40.3879 5.63095 41.9926 7.24047 43.9722 7.24047H72.6459C74.6254 7.24047 76.2301 5.63095 76.2301 3.6455C76.2301 1.66006 74.6254 0.0505371 72.6459 0.0505371Z" fill="#2A9C8E"/>
<path d="M75.7175 22.3895C71.6673 40.1953 44.947 40.1882 40.8968 22.3895C40.3842 20.1318 42.0867 17.9749 44.395 17.9749C46.0616 17.9749 47.4989 19.1288 47.886 20.7538C50.395 31.287 66.2121 31.2834 68.7246 20.7538C69.1117 19.1288 70.549 17.9749 72.2157 17.9749C74.5275 17.9749 76.2264 20.1318 75.7139 22.3895H75.7175Z" fill="#FE2056"/>
</svg>
